<svg xmlns="http://www.w3.org/2000/svg" viewBox="0 0 100 100">
  <path fill="#2d2d2d" d="M99.92,40.071c-0.632-3.197-4.878-5.282-6.098-8.223c-1.242-2.992,0.273-7.465-1.507-10.125 c-1.794-2.679-6.513-2.983-8.785-5.255c-2.271-2.272-2.575-6.99-5.256-8.785c-2.66-1.78-7.132-0.266-10.124-1.507 c-2.941-1.219-5.025-5.464-8.222-6.097c-3.104-0.613-6.647,2.5-9.929,2.5c-3.282,0-6.825-3.113-9.929-2.5 c-3.196,0.632-5.281,4.878-8.222,6.097c-2.993,1.242-7.465-0.273-10.125,1.507c-2.68,1.794-2.983,6.513-5.255,8.785 c-2.273,2.272-6.991,2.576-8.786,5.255c-1.781,2.66-0.265,7.133-1.506,10.125c-1.22,2.941-5.465,5.027-6.097,8.223 c-0.613,3.102,2.5,6.647,2.5,9.929c0,3.283-3.113,6.827-2.5,9.929c0.632,3.196,4.877,5.281,6.097,8.223 c1.241,2.993-0.274,7.465,1.506,10.125c1.794,2.681,6.514,2.982,8.786,5.255c2.272,2.274,2.575,6.992,5.256,8.786 c2.659,1.78,7.132,0.267,10.125,1.507c2.94,1.219,5.025,5.464,8.222,6.096c3.104,0.614,6.647-2.499,9.929-2.499 c3.281,0,6.825,3.113,9.93,2.499c3.196-0.632,5.279-4.877,8.221-6.096c2.992-1.242,7.464,0.272,10.126-1.507 c2.679-1.796,2.982-6.514,5.255-8.786c2.271-2.272,6.99-2.576,8.784-5.255c1.78-2.66,0.265-7.132,1.507-10.125 c1.22-2.941,5.466-5.026,6.098-8.223c0.614-3.104-2.501-6.646-2.501-9.929S100.534,43.173,99.92,40.071z M77.831,19.152 c0.819-0.103,2.312-0.069,3.306-0.458c0.027,0.029,0.048,0.062,0.076,0.091c1.022,1.022,2.258,1.707,3.488,2.27 c-1.314,0.876-2.378,2.474-2.845,3.809c-0.064,0.184-0.119,0.359-0.166,0.527c-1.785-2.296-3.808-4.398-6.042-6.257 C76.249,19.243,76.97,19.261,77.831,19.152z M64.397,7.662c0.748,0.608,1.567,1.156,2.498,1.542 c1.418,0.588,2.89,0.745,4.319,0.786c-1.012,1.34-1.455,3.387-1.38,4.908c0.003,0.081,0.012,0.151,0.018,0.229 c-3.352-1.913-7.006-3.354-10.874-4.239C60.511,10.162,62.247,8.07,64.397,7.662z M3.935,60.421 c-0.332-0.414-0.577-0.805-0.64-1.129c-0.138-0.696,0.494-2.198,1.001-3.406C5.027,54.142,5.856,52.165,5.856,50 c0-1.42-0.367-2.75-0.819-3.994c0.895,0.199,2.039-0.072,3.436-1.117c4.096-3.059-3.15-2.993-4.479-5.382 c0.449-0.549,1.042-1.139,1.6-1.691c1.316-1.3,2.807-2.775,3.611-4.711c0.817-1.972,0.809-4.093,0.801-5.965 c-0.002-0.671-0.004-1.381,0.04-2.01c0.956,1.002,2.721,1.491,4.015,1.466c4.056-0.074,1.901-2.978,1.711-5.768 c1.069-0.523,2.123-1.152,3.013-2.042c1.5-1.5,2.298-3.457,3.002-5.184c0.209-0.515,0.431-1.054,0.66-1.547 c0.576,1.153,1.899,2.132,3.004,2.556c3.721,1.428,2.809-2.031,3.681-4.633c1.32-0.058,2.669-0.234,3.973-0.774 c1.937-0.802,3.412-2.294,4.713-3.61c0.266-0.271,0.542-0.549,0.819-0.817c0.155,1.279,0.989,2.643,1.843,3.441 c3.087,2.885,3.478-1.101,5.467-3.201c1.261,0.461,2.61,0.839,4.053,0.839c1.962,0,3.76-0.682,5.379-1.354 c-0.395,1.469-0.087,3.331,0.493,4.583c0.275,0.594,0.553,1.03,0.832,1.35C54.523,10.067,52.286,9.866,50,9.866 C27.834,9.866,9.866,27.836,9.866,50c0,4.017,0.597,7.892,1.696,11.552C9.144,61.206,5.994,60.957,3.935,60.421z M10.498,76.558 c-0.029-0.035-0.068-0.069-0.091-0.104c-0.412-0.614-0.405-2.195-0.4-3.59c0.007-1.872,0.016-3.996-0.802-5.968 c-0.071-0.171-0.173-0.319-0.254-0.484c1.452,0.082,2.914-0.264,4.051-0.836c1.37,3.25,3.164,6.274,5.298,9.023 C15.822,75.1,13.055,76.41,10.498,76.558z M26.259,89.994c-0.896-0.006-2.188-0.05-2.711-0.4c-0.631-0.423-1.232-1.896-1.761-3.194 c-0.328-0.806-0.684-1.662-1.115-2.497c1.215-0.441,2.668-1.363,4.509-2.374c2.051,1.617,4.262,3.035,6.608,4.233 C30.374,87.188,28.522,89.164,26.259,89.994z M50,94.145c-2.167,0-4.142,0.829-5.886,1.561c-1.193,0.5-2.424,1.019-3.198,1.019 c-0.078,0-0.149-0.006-0.209-0.018c-0.718-0.142-1.75-1.148-2.693-2.102c1.68-0.96,3.47-2.838,5.017-5.086 c2.265,0.396,4.589,0.615,6.97,0.615c0.206,0,0.409-0.012,0.616-0.016c0.208,1.346,0.584,2.536,1.471,4.287 C51.411,94.257,50.72,94.145,50,94.145z M50,87.052c-20.463,0-37.051-16.591-37.051-37.052c0-20.462,16.587-37.051,37.051-37.051 c20.463,0,37.05,16.588,37.05,37.051C87.05,70.461,70.463,87.052,50,87.052z"/>
  <circle cx="50" cy="50" r="34.853"/>
</svg>
